<svg height="241.725" viewBox="0 0 271.27 241.725" width="271.27"
    xmlns="http://www.w3.org/2000/svg">
    <filter filterUnits="userSpaceOnUse" height="217.12" id="a" width="217.14" x="0" y="24.605">
        <feOffset />
        <feGaussianBlur result="blur" stdDeviation="4" />
        <feFlood flood-color="#ff4866" flood-opacity=".424" />
        <feComposite in2="blur" operator="in" />
        <feComposite in="SourceGraphic" />
    </filter>
    <g fill="none">
        <path d="m186.469 92.754h-24.579" />
        <path d="m-65.69 209.763v69.573h-70.686" transform="translate(332.959 -186.583)" />
        <path
            d="m-224.01 154.288h-30.749v75.712c0 4.948 2.731 7.67 7.67 7.67h2.841c4.948 0 7.67-2.723 7.67-7.67v-59.486h12.568c4.948 0 7.67-2.723 7.67-7.67v-.885c.001-4.948-2.722-7.671-7.67-7.671z"
            stroke="#fff" stroke-miterlimit="10" stroke-width="6"
            transform="matrix(.77714596 .62932039 -.62932039 .77714596 484.1298463521 57.44529979212)" />
        <path
            d="m-258.551 154.288v16.226h-12.677c-4.948 0-7.67-2.723-7.67-7.67v-.885c0-4.948 2.723-7.67 7.67-7.67z"
            stroke="#43ffe2" stroke-miterlimit="10" stroke-width="6"
            transform="matrix(.77714596 .62932039 -.62932039 .77714596 487.07678383242 59.831682711)" />
    </g>
    <g filter="url(#a)" transform="translate(.003 -.001)">
        <path
            d="m-174.516 206.622a91.079 91.079 0 0 1 -92.652 67.584 91.364 91.364 0 0 1 -18.687-2.942 91.026 91.026 0 0 1 -64.645-111.33 91.065 91.065 0 0 1 84.234-67.634 90.968 90.968 0 0 1 27.1 2.992 91.038 91.038 0 0 1 64.65 111.33z"
            fill="#101426" stroke="#ff4866" stroke-miterlimit="10" stroke-width="11"
            transform="translate(371.08 -50.12)" />
    </g>
    <path d="m190.469 210.754h-24.579" fill="none" />
    <path d="m-65.69 209.763v69.573h-70.686" fill="none" transform="translate(336.959 -68.583)" />
    <path
        d="m-238.778 269.692a69.7 69.7 0 0 0 61.55-64.293 5.16 5.16 0 0 1 4.516-4.821 5.066 5.066 0 0 1 5.6 5.013c0 .11 0 .228-.008.337a79.839 79.839 0 0 1 -70.518 73.821 5.068 5.068 0 0 1 -5.624-4.761 5.055 5.055 0 0 1 4.484-5.296z"
        fill="#ff4866" opacity=".484" transform="translate(352.752 -72.136)" />
    <path d="m-65.69 209.763v69.573h-70.686" fill="none" transform="translate(336.959 -72.583)" />
    <ellipse cx="180.635" cy="116.656" fill="#ff4866" opacity=".484" rx="4.386" ry="4.386" />
</svg>