<svg height="284.876" width="206.862" xmlns="http://www.w3.org/2000/svg">
    <defs>
        <style>.cls-3{fill:rgba(255,255,255,.13)}.cls-4{fill:#464749}</style>
    </defs>
    <g data-name="Component 6 – 3" id="Component_6_3" transform="translate(1.014 3)">
        <g data-name="Group 18" id="Group_18" transform="translate(-87.593 -247.116)">
            <path d="M200.411 283.992h0a102.441 102.441 0 00-10.486-.54 102.428 102.428 0 00-7.695.291v-20.4h-12.677c-4.946 0-7.67-2.724-7.67-7.67v-.886c0-4.947 2.724-7.671 7.67-7.671h43.427c4.947 0 7.671 2.724 7.671 7.671v.886c0 4.946-2.724 7.67-7.671 7.67h-12.568v20.649z" data-name="Subtraction 1"
                fill="#101426"
                id="Subtraction_1" stroke="#fff" stroke-miterlimit="10" stroke-width="6" />
            <path d="M277.994 411.2a91.079 91.079 0 01-92.652 67.584 91.364 91.364 0 01-18.687-2.942 91.026 91.026 0 01-64.645-111.33 91.065 91.065 0 0184.234-67.634 90.968 90.968 0 0127.1 2.992 91.038 91.038 0 0164.65 111.33z" data-name="Path 3"
                fill="#101426"
                id="Path_3" opacity=".131" stroke="#fff" stroke-miterlimit="10"
                stroke-width="11" />
            <path class="cls-3" d="M-238.778 269.692a69.7 69.7 0 0061.55-64.293 5.16 5.16 0 014.516-4.821 5.066 5.066 0 015.6 5.013c0 .11 0 .228-.008.337a79.839 79.839 0 01-70.518 73.821 5.068 5.068 0 01-5.624-4.761 5.055 5.055 0 014.484-5.296z" data-name="Path 10"
                id="Path_10"
                transform="translate(435.183 187.561)" />
            <circle class="cls-4" cx="4.386" cy="4.386" data-name="Ellipse 1" id="Ellipse_1"
                r="4.386" transform="translate(258.68 371.966)" />
            <path d="M266.816 408.235a79.51 79.51 0 01-80.883 59 79.757 79.757 0 01-16.313-2.568 79.463 79.463 0 01-56.431-97.189 79.5 79.5 0 0173.531-59.043 79.412 79.412 0 0123.656 2.61 79.473 79.473 0 0156.44 97.19z" data-name="Path 31"
                fill="#101426"
                id="Path_31" stroke="#fff" stroke-miterlimit="10" stroke-width="2" />
            <path d="M288.958 414.111a102.433 102.433 0 01-104.2 76.009 102.751 102.751 0 01-21.017-3.308 102.373 102.373 0 01-72.7-125.209 102.417 102.417 0 0194.732-76.066 102.308 102.308 0 0130.478 3.365 102.5 102.5 0 0175.074 84.108 101.724 101.724 0 01-2.367 41.101z" data-name="Path 32"
                fill="none"
                id="Path_32" stroke="#fff" stroke-miterlimit="10" stroke-width="2" />
            <path d="M-446.182-1123.124a102.441 102.441 0 00-10.486-.54 102.428 102.428 0 00-7.695.291v-20.4h-12.677c-4.946 0-7.67-2.724-7.67-7.67v-.886c0-4.947 2.724-7.671 7.67-7.671h43.427c4.947 0 7.671 2.724 7.671 7.671v.886c0 4.946-2.724 7.67-7.671 7.67h-12.568v20.649z" data-name="Subtraction 3"
                fill="none"
                id="Subtraction_3" transform="rotate(180 -132.031 -315.504)" />
        </g>
        <path class="cls-3" d="M-239.191 263.333a63.291 63.291 0 0055.889-58.38 4.685 4.685 0 014.1-4.378 4.6 4.6 0 015.085 4.552c0 .1 0 .207-.008.306a72.5 72.5 0 01-64.033 67.032 4.6 4.6 0 01-5.107-4.323 4.59 4.59 0 014.074-4.809z" data-name="Path 34"
            id="Path_34"
            transform="translate(345.092 -63.655)" />
        <circle class="cls-4" cx="3.982" cy="3.982" data-name="Ellipse 3" id="Ellipse_3"
            r="3.982" transform="translate(162.449 122.236)" />
    </g>
</svg>