<svg xmlns="http://www.w3.org/2000/svg" width="206.862" height="284.876" viewBox="0 0 206.862 284.876">
  <defs>
    <style>
      .cls-1, .cls-2, .cls-5 {
        fill: #101426;
      }

      .cls-1, .cls-2, .cls-5, .cls-6 {
        stroke: #fff;
        stroke-miterlimit: 10;
      }

      .cls-1 {
        stroke-width: 6px;
      }

      .cls-2 {
        stroke-width: 11px;
        opacity: 0.131;
      }

      .cls-3 {
        fill: rgba(255,255,255,0.13);
      }

      .cls-4 {
        fill: #464749;
      }

      .cls-5, .cls-6 {
        stroke-width: 2px;
      }

      .cls-6, .cls-7 {
        fill: none;
      }
    </style>
  </defs>
  <g id="Component_6_3" data-name="Component 6 – 3" transform="translate(1.014 3)">
    <g id="Group_18" data-name="Group 18" transform="translate(-87.593 -247.116)">
      <path id="Subtraction_1" data-name="Subtraction 1" class="cls-1" d="M-446.182-1123.124h0a102.441,102.441,0,0,0-10.486-.54c-1.378,0-2.774.028-4.149.084-1.179.048-2.372.118-3.546.207v-20.4h-12.677c-4.946,0-7.67-2.724-7.67-7.67v-.886c0-4.947,2.724-7.671,7.67-7.671h43.427c4.947,0,7.671,2.724,7.671,7.671v.886c0,4.946-2.724,7.67-7.671,7.67h-12.568v20.649Z" transform="translate(646.593 1407.116)"/>
      <path id="Path_3" data-name="Path 3" class="cls-2" d="M-174.516,206.622a91.079,91.079,0,0,1-92.652,67.584,91.364,91.364,0,0,1-18.687-2.942A91.026,91.026,0,0,1-350.5,159.934,91.065,91.065,0,0,1-266.266,92.3a90.968,90.968,0,0,1,27.1,2.992A91.038,91.038,0,0,1-174.516,206.622Z" transform="translate(452.51 204.578)"/>
      <path id="Path_10" data-name="Path 10" class="cls-3" d="M-238.778,269.692a69.7,69.7,0,0,0,61.55-64.293,5.16,5.16,0,0,1,4.516-4.821,5.066,5.066,0,0,1,5.6,5.013c0,.11,0,.228-.008.337a79.839,79.839,0,0,1-70.518,73.821,5.068,5.068,0,0,1-5.624-4.761h0A5.055,5.055,0,0,1-238.778,269.692Z" transform="translate(435.183 187.561)"/>
      <ellipse id="Ellipse_1" data-name="Ellipse 1" class="cls-4" cx="4.386" cy="4.386" rx="4.386" ry="4.386" transform="translate(258.68 371.966)"/>
      <path id="Path_31" data-name="Path 31" class="cls-5" d="M-197.26,192.09a79.51,79.51,0,0,1-80.883,59,79.757,79.757,0,0,1-16.313-2.568,79.463,79.463,0,0,1-56.431-97.189A79.5,79.5,0,0,1-277.356,92.29,79.412,79.412,0,0,1-253.7,94.9,79.473,79.473,0,0,1-197.26,192.09Z" transform="translate(464.076 216.145)"/>
      <path id="Path_32" data-name="Path 32" class="cls-6" d="M-152.2,220.883a102.433,102.433,0,0,1-104.2,76.009,102.751,102.751,0,0,1-21.017-3.308,102.373,102.373,0,0,1-72.7-125.209,102.417,102.417,0,0,1,94.732-76.066,102.308,102.308,0,0,1,30.478,3.365,102.5,102.5,0,0,1,75.074,84.108A101.724,101.724,0,0,1-152.2,220.883Z" transform="translate(441.158 193.228)"/>
      <path id="Subtraction_3" data-name="Subtraction 3" class="cls-7" d="M-446.182-1123.124h0a102.441,102.441,0,0,0-10.486-.54c-1.378,0-2.774.028-4.149.084-1.179.048-2.372.118-3.546.207v-20.4h-12.677c-4.946,0-7.67-2.724-7.67-7.67v-.886c0-4.947,2.724-7.671,7.67-7.671h43.427c4.947,0,7.671,2.724,7.671,7.671v.886c0,4.946-2.724,7.67-7.671,7.67h-12.568v20.649Z" transform="translate(-264.062 -631.008) rotate(180)"/>
    </g>
    <path id="Path_34" data-name="Path 34" class="cls-3" d="M-239.191,263.333a63.291,63.291,0,0,0,55.889-58.38,4.685,4.685,0,0,1,4.1-4.378,4.6,4.6,0,0,1,5.085,4.552c0,.1,0,.207-.008.306a72.5,72.5,0,0,1-64.033,67.032,4.6,4.6,0,0,1-5.107-4.323h0A4.59,4.59,0,0,1-239.191,263.333Z" transform="translate(345.092 -63.655)"/>
    <ellipse id="Ellipse_3" data-name="Ellipse 3" class="cls-4" cx="3.982" cy="3.982" rx="3.982" ry="3.982" transform="translate(162.449 122.236)"/>
  </g>
</svg>
